<!-- Generated by IcoMoon.io -->
<svg version="1.1" xmlns="http://www.w3.org/2000/svg" width="24" height="24" viewBox="0 0 24 24">
<title>github</title>
<path d="M8.545 22.632c-0.128 0-0.257-0.022-0.38-0.067-4.644-1.684-7.619-6.132-7.404-11.068 0.009-0.206 0.174-0.364 0.391-0.359 0.207 0.009 0.368 0.185 0.358 0.391-0.201 4.607 2.576 8.758 6.911 10.329 0.113 0.042 0.239 0.025 0.34-0.047 0.104-0.073 0.163-0.188 0.163-0.313l-0.006-1.18c-2.945 0.421-3.643-1.781-3.65-1.805-0.414-1.054-1.006-1.365-1.013-1.368-0.256-0.172-0.747-0.507-0.608-0.947 0.125-0.396 0.639-0.422 0.852-0.429 1.302 0.091 1.962 1.27 1.989 1.32 0.717 1.232 1.811 1.085 2.501 0.821 0.068-0.339 0.179-0.647 0.329-0.912-2.154-0.365-4.632-1.48-4.632-5.676 0-1.148 0.359-2.16 1.068-3.012-0.156-0.505-0.351-1.584 0.183-2.944 0.041-0.105 0.128-0.185 0.235-0.22s1.105-0.296 3.173 1.069c0.839-0.218 1.732-0.332 2.654-0.336 0.925 0.005 1.817 0.118 2.657 0.336 2.067-1.365 3.060-1.105 3.169-1.069 0.107 0.035 0.193 0.115 0.234 0.219 0.536 1.36 0.342 2.438 0.185 2.945 0.708 0.85 1.067 1.862 1.067 3.012 0 4.196-2.481 5.308-4.639 5.669 0.265 0.467 0.412 1.069 0.412 1.74 0 0.76-0.004 1.849-0.008 2.769 0 0.124 0.058 0.236 0.16 0.309s0.229 0.089 0.347 0.047c4.136-1.503 6.915-5.465 6.915-9.859 0-2.897-1.155-5.595-3.251-7.597-2.096-2-4.847-3.028-7.752-2.891-0.206 0.016-0.382-0.151-0.392-0.357s0.15-0.382 0.357-0.392c3.114-0.142 6.060 0.956 8.305 3.098 2.247 2.144 3.484 5.035 3.484 8.139 0 4.708-2.977 8.953-7.409 10.563-0.347 0.125-0.734 0.074-1.035-0.139s-0.48-0.558-0.479-0.925c0.004-0.919 0.008-2.007 0.008-2.766 0-1.094-0.425-1.58-0.608-1.738-0.113-0.098-0.158-0.253-0.113-0.395s0.169-0.245 0.317-0.262c2.29-0.255 4.632-1.051 4.632-5.015 0-1.035-0.343-1.936-1.020-2.677-0.098-0.107-0.125-0.26-0.070-0.395 0.104-0.255 0.393-1.153-0.032-2.398-0.317 0.009-1.127 0.142-2.505 1.080-0.091 0.062-0.206 0.082-0.312 0.051-0.813-0.226-1.72-0.349-2.624-0.354-0.914 0.005-1.796 0.124-2.62 0.354-0.106 0.031-0.22 0.011-0.312-0.051-1.372-0.934-2.182-1.070-2.509-1.078-0.422 1.246-0.133 2.141-0.029 2.397 0.054 0.134 0.027 0.287-0.071 0.394-0.678 0.743-1.021 1.644-1.021 2.678 0 3.961 2.336 4.763 4.621 5.023 0.147 0.017 0.271 0.119 0.315 0.26s0.001 0.296-0.11 0.394c-0.168 0.148-0.466 0.504-0.567 1.23-0.017 0.128-0.1 0.237-0.218 0.29-0.563 0.253-2.487 0.928-3.643-1.060-0.008-0.014-0.394-0.691-1.083-0.889 0.244 0.163 0.808 0.639 1.223 1.699 0.032 0.1 0.606 1.807 3.235 1.235 0.111-0.023 0.226 0.002 0.314 0.073s0.14 0.178 0.141 0.29l0.008 1.627c0.002 0.368-0.178 0.716-0.481 0.929-0.192 0.136-0.418 0.206-0.647 0.206z"></path>
<path d="M11.803 23.25c-6.197 0-11.053-4.942-11.053-11.25 0-2.722 0.929-5.333 2.614-7.353 0.132-0.159 0.37-0.181 0.528-0.047s0.181 0.369 0.048 0.528c-1.573 1.885-2.44 4.325-2.44 6.872 0 5.888 4.526 10.5 10.303 10.5 5.899 0 10.697-4.71 10.697-10.5s-4.799-10.5-10.697-10.5c-1.831 0-3.609 0.465-5.143 1.344-0.178 0.101-0.409 0.040-0.512-0.139s-0.040-0.409 0.139-0.512c1.648-0.944 3.556-1.442 5.516-1.442 6.312 0 11.447 5.047 11.447 11.25s-5.135 11.25-11.447 11.25z"></path>
<path d="M5.657 3.414c0 0.206-0.169 0.375-0.375 0.375v0c-0.206 0-0.375-0.169-0.375-0.375v0c0-0.206 0.169-0.375 0.375-0.375v0c0.206 0 0.375 0.168 0.375 0.375v0z"></path>
</svg>
