<!-- Generated by IcoMoon.io -->
<svg version="1.1" xmlns="http://www.w3.org/2000/svg" width="24" height="24" viewBox="0 0 24 24">
<title>linkedin</title>
<path d="M19.892 3.844c0.146 0 0.264 0.118 0.264 0.264v15.786c0 0.146-0.118 0.264-0.264 0.264v0h-15.784c-0.146 0-0.264-0.118-0.264-0.264v0-15.786c0-0.146 0.118-0.264 0.264-0.264v0h15.786zM19.894 2.625h-15.786c-0.819 0-1.483 0.664-1.483 1.483v0 15.786c0.001 0.818 0.665 1.481 1.483 1.481h15.786c0.819 0 1.483-0.664 1.483-1.483v0-15.784c0-0.819-0.664-1.483-1.483-1.483-0.001 0-0.001 0-0.002 0h0z"></path>
<path d="M6.988 9.45h2.199v7.824h-2.199v-7.824z"></path>
<path d="M14.481 9.45c-1.884 0-1.918 1.089-1.918 1.164v-1.164h-2.25v7.824h2.25v-4.466c0-0.349 0.103-1.099 1.168-1.099s1.056 1.074 1.056 1.074v4.5h2.226v-4.875c0-2.312-1.262-2.959-2.531-2.959z"></path>
<path d="M9.186 7.824c0 0.607-0.492 1.099-1.099 1.099s-1.099-0.492-1.099-1.099c0-0.607 0.492-1.099 1.099-1.099s1.099 0.492 1.099 1.099z"></path>
</svg>
