<!-- Generated by IcoMoon.io -->
<svg version="1.1" xmlns="http://www.w3.org/2000/svg" width="24" height="24" viewBox="0 0 24 24">
<title>phone</title>
<path fill="none" stroke-linejoin="round" stroke-linecap="round" stroke-miterlimit="4" stroke-width="2" stroke="#000" d="M22 16.92v3c0 0.002 0 0.005 0 0.008 0 1.105-0.895 2-2 2-0.063 0-0.126-0.003-0.188-0.009l0.008 0.001c-3.245-0.362-6.177-1.457-8.705-3.116l0.075 0.046c-2.432-1.561-4.439-3.568-5.953-5.923l-0.047-0.077c-1.619-2.465-2.715-5.41-3.062-8.582l-0.008-0.088c-0.005-0.054-0.008-0.117-0.008-0.18 0-1.104 0.894-1.999 1.998-2h3c0.006-0 0.013-0 0.020-0 1.006 0 1.838 0.742 1.979 1.709l0.001 0.011c0.141 1.050 0.386 1.998 0.73 2.898l-0.030-0.088c0.081 0.209 0.128 0.451 0.128 0.704 0 0.548-0.221 1.045-0.578 1.406l-1.27 1.27c1.449 2.517 3.483 4.551 5.923 5.959l0.077 0.041 1.27-1.27c0.361-0.357 0.858-0.578 1.406-0.578 0.253 0 0.495 0.047 0.717 0.133l-0.014-0.005c0.812 0.314 1.76 0.559 2.744 0.693l0.066 0.007c0.978 0.142 1.721 0.974 1.721 1.98 0 0.017-0 0.035-0.001 0.052l0-0.003z"></path>
</svg>
