<!-- Generated by IcoMoon.io -->
<svg version="1.1" xmlns="http://www.w3.org/2000/svg" width="24" height="24" viewBox="0 0 24 24">
<title>twitter</title>
<path fill="none" stroke-linejoin="round" stroke-linecap="round" stroke-miterlimit="4" stroke-width="0.75" stroke="#000" d="M18.926 6.431v10.905c-0.002 0.957-0.776 1.732-1.732 1.736h-10.718c-0.955-0.004-1.728-0.777-1.732-1.732v-10.909c0.004-0.955 0.777-1.728 1.732-1.733h10.718"></path>
<path d="M19.32 5.183c0 0.207-0.168 0.375-0.375 0.375s-0.375-0.168-0.375-0.375c0-0.207 0.168-0.375 0.375-0.375s0.375 0.168 0.375 0.375z"></path>
<path fill="none" stroke-linejoin="round" stroke-linecap="round" stroke-miterlimit="4" stroke-width="0.75" stroke="#000" d="M9.559 12.27c-0.482-0.176-0.899-0.411-1.27-0.701l0.010 0.008c-0.396-0.35-0.652-0.849-0.682-1.409l-0-0.005c0-0.218-0.075-1.313 0.293-1.286 0.060 0 0.113 0.056 0.15 0.101 0.099 0.118 0.198 0.224 0.303 0.325l0.001 0.001c0.809 0.782 1.912 1.265 3.128 1.265 0.072 0 0.144-0.002 0.216-0.005l-0.010 0c-0.017-0.094-0.026-0.201-0.026-0.311 0-1.023 0.829-1.853 1.852-1.853 0.324 0 0.629 0.083 0.895 0.23l-0.010-0.005c0.17 0.12 0.367 0.22 0.576 0.291l0.016 0.005c0.069 0.012 0.149 0.018 0.231 0.018s0.161-0.007 0.239-0.019l-0.008 0.001 1.125-0.127c-0.367 0.427-0.687 0.912-0.942 1.434l-0.018 0.040c-0.164 0.452-0.287 0.979-0.346 1.526l-0.003 0.030c-0.244 1.223-0.947 2.249-1.919 2.911l-0.016 0.010s0 0 0 0c-0.126 0.086-0.27 0.171-0.421 0.245l-0.021 0.010c-0.182 0.104-0.395 0.203-0.616 0.283l-0.029 0.009-0.206 0.071-0.229 0.064c-0.452 0.106-0.972 0.167-1.506 0.167-0.612 0-1.206-0.080-1.771-0.23l0.048 0.011-0.439-0.101-0.514-0.143c0.664-0.039 1.274-0.238 1.803-0.557l-0.018 0.010c0.109-0.064 0.221-0.154 0.206-0.274-0.016-0.089-0.069-0.164-0.141-0.209l-0.001-0.001c-0.387-0.34-0.718-0.73-0.988-1.163l-0.013-0.022"></path>
</svg>
