<!-- Generated by IcoMoon.io -->
<svg version="1.1" xmlns="http://www.w3.org/2000/svg" width="24" height="24" viewBox="0 0 24 24">
<title>woman-hair</title>
<path d="M5.625 7.125c0.828 0 1.5-0.672 1.5-1.5s-0.672-1.5-1.5-1.5c-0.828 0-1.5 0.672-1.5 1.5s0.671 1.5 1.5 1.5zM5.625 4.875c0.414 0 0.75 0.336 0.75 0.75s-0.336 0.75-0.75 0.75c-0.414 0-0.75-0.336-0.75-0.75s0.336-0.75 0.75-0.75z"></path>
<path d="M5.25 10.875c0-0.828-0.672-1.5-1.5-1.5s-1.5 0.672-1.5 1.5 0.671 1.5 1.5 1.5c0.828 0 1.5-0.672 1.5-1.5zM3 10.875c0-0.414 0.336-0.75 0.75-0.75s0.75 0.336 0.75 0.75c0 0.414-0.336 0.75-0.75 0.75s-0.75-0.336-0.75-0.75z"></path>
<path d="M4.5 14.625c-0.828 0-1.5 0.672-1.5 1.5s0.671 1.5 1.5 1.5c0.828 0 1.5-0.672 1.5-1.5s-0.672-1.5-1.5-1.5zM4.5 16.875c-0.414 0-0.75-0.336-0.75-0.75s0.336-0.75 0.75-0.75c0.414 0 0.75 0.336 0.75 0.75s-0.336 0.75-0.75 0.75z"></path>
<path d="M18.375 7.125c0.828 0 1.5-0.672 1.5-1.5s-0.672-1.5-1.5-1.5c-0.829 0-1.5 0.672-1.5 1.5s0.671 1.5 1.5 1.5zM18.375 4.875c0.414 0 0.75 0.336 0.75 0.75s-0.336 0.75-0.75 0.75c-0.414 0-0.75-0.336-0.75-0.75s0.336-0.75 0.75-0.75z"></path>
<path d="M18.75 10.875c0 0.828 0.671 1.5 1.5 1.5s1.5-0.672 1.5-1.5-0.672-1.5-1.5-1.5c-0.829 0-1.5 0.672-1.5 1.5zM21 10.875c0 0.414-0.336 0.75-0.75 0.75s-0.75-0.336-0.75-0.75c0-0.414 0.336-0.75 0.75-0.75s0.75 0.336 0.75 0.75z"></path>
<path d="M21.256 13.698c1.358-0.482 2.18-1.862 1.958-3.286s-1.427-2.487-2.867-2.532c1.227-1.073 1.372-2.93 0.325-4.18s-2.9-1.434-4.172-0.414v-2.161c0-0.207-0.168-0.375-0.375-0.375h-8.25c-0.207 0-0.375 0.168-0.375 0.375v2.167c-1.27-1.023-3.125-0.842-4.173 0.408s-0.903 3.108 0.326 4.18c-1.44 0.045-2.644 1.108-2.867 2.532s0.6 2.804 1.958 3.286c-1.095 0.792-1.526 2.218-1.050 3.483s1.738 2.056 3.083 1.931c1.345-0.125 2.441-1.135 2.675-2.466 0.425 0.593 0.949 1.108 1.548 1.524v2.080h-3.375c-1.035 0.001-1.874 0.84-1.875 1.875v0.75c0 0.207 0.168 0.375 0.375 0.375h15.75c0.207 0 0.375-0.168 0.375-0.375v-0.75c-0.001-1.035-0.84-1.874-1.875-1.875h-3.375v-2.080c0.599-0.416 1.123-0.931 1.548-1.524 0.231 1.334 1.328 2.348 2.676 2.474s2.614-0.666 3.089-1.934c0.475-1.268 0.042-2.697-1.057-3.488zM22.5 10.875c0 1.243-1.008 2.25-2.25 2.25s-2.25-1.007-2.25-2.25c0-1.242 1.007-2.25 2.25-2.25 1.242 0.001 2.249 1.008 2.25 2.25zM17.603 9.466c-0.12-0.378-0.269-0.746-0.445-1.101 0.353 0.157 0.733 0.244 1.119 0.255-0.274 0.239-0.503 0.525-0.675 0.846zM18.375 3.375c1.195-0.001 2.183 0.932 2.249 2.125s-0.812 2.23-1.999 2.361c-1.188 0.131-2.271-0.689-2.467-1.868 0.192-0.015 0.341-0.175 0.342-0.368v-1.237c0.413-0.634 1.119-1.015 1.875-1.013zM15.75 5.25h-1.875v-3.75h1.875v3.75zM13.125 1.5v3.75h-2.25v-3.75h2.25zM6.397 9.466c-0.172-0.32-0.401-0.607-0.675-0.846 0.386-0.012 0.766-0.098 1.119-0.255-0.176 0.355-0.324 0.723-0.444 1.101zM8.25 1.5h1.875v3.75h-1.875v-3.75zM3.375 5.625c-0.002-0.994 0.649-1.87 1.601-2.156s1.978 0.088 2.524 0.919v1.237c0.001 0.193 0.15 0.353 0.342 0.368-0.198 1.148-1.241 1.955-2.402 1.859s-2.057-1.062-2.065-2.227zM1.5 10.875c0-1.242 1.007-2.25 2.25-2.25s2.25 1.008 2.25 2.25c0 1.243-1.008 2.25-2.25 2.25-1.242-0.001-2.249-1.008-2.25-2.25zM4.5 18.375c-1.243 0-2.25-1.007-2.25-2.25s1.007-2.25 2.25-2.25c1.242 0 2.25 1.007 2.25 2.25-0.001 1.242-1.008 2.249-2.25 2.25zM5.506 13.303c0.198-0.143 0.377-0.309 0.535-0.495 0.027 0.278 0.067 0.552 0.12 0.822-0.204-0.135-0.424-0.245-0.655-0.327zM14.424 17.653c-0.108 0.069-0.174 0.188-0.174 0.317v2.656c0 0.207 0.168 0.375 0.375 0.375h3.75c0.621 0 1.125 0.504 1.125 1.125v0.375h-15v-0.375c0-0.621 0.503-1.125 1.125-1.125h3.75c0.207 0 0.375-0.168 0.375-0.375v-2.657c0-0.128-0.066-0.248-0.174-0.317-1.743-1.106-2.826-3.271-2.826-5.651-0.038-1.922 0.727-3.773 2.11-5.109-0.128 0.823-0.207 1.652-0.235 2.484 0 0.207 0.168 0.375 0.375 0.375s0.375-0.168 0.375-0.375c0.051-1.042 0.163-2.079 0.338-3.108 0.167-0.099 0.34-0.189 0.517-0.267h0.207c-0.177 1.117-0.281 2.245-0.312 3.375 0 0.207 0.168 0.375 0.375 0.375s0.375-0.168 0.375-0.375c0.034-1.131 0.142-2.258 0.321-3.375h0.429v3.375c0 0.207 0.168 0.375 0.375 0.375s0.375-0.168 0.375-0.375v-3.375h0.429c0.179 1.117 0.286 2.244 0.321 3.375 0 0.207 0.168 0.375 0.375 0.375s0.375-0.168 0.375-0.375c-0.031-1.13-0.135-2.258-0.312-3.375h0.207c0.178 0.078 0.351 0.168 0.519 0.267 0.174 1.028 0.286 2.066 0.337 3.108 0 0.207 0.168 0.375 0.375 0.375s0.375-0.168 0.375-0.375c-0.029-0.832-0.108-1.661-0.236-2.484 1.383 1.335 2.148 3.186 2.111 5.109 0 2.379-1.083 4.545-2.826 5.651v0.002zM17.959 12.808c0.158 0.186 0.338 0.352 0.535 0.495-0.231 0.081-0.451 0.191-0.655 0.327 0.053-0.269 0.093-0.543 0.12-0.822zM19.5 18.375c-1.243 0-2.25-1.007-2.25-2.25s1.007-2.25 2.25-2.25c1.242 0 2.25 1.007 2.25 2.25-0.001 1.242-1.008 2.249-2.25 2.25z"></path>
<path d="M19.5 14.625c-0.829 0-1.5 0.672-1.5 1.5s0.671 1.5 1.5 1.5c0.828 0 1.5-0.672 1.5-1.5s-0.672-1.5-1.5-1.5zM19.5 16.875c-0.414 0-0.75-0.336-0.75-0.75s0.336-0.75 0.75-0.75c0.414 0 0.75 0.336 0.75 0.75s-0.336 0.75-0.75 0.75z"></path>
<path d="M11.14 11.36c-0.146-0.146-0.384-0.146-0.53 0-0.27 0.293-0.65 0.46-1.048 0.46s-0.778-0.167-1.048-0.46c-0.147-0.142-0.381-0.139-0.526 0.006s-0.146 0.379-0.003 0.526c0.433 0.429 1.013 0.678 1.622 0.696 0.585-0.012 1.139-0.264 1.533-0.696 0.070-0.070 0.11-0.166 0.11-0.266s-0.040-0.195-0.11-0.266z"></path>
<path d="M16.015 11.36c-0.146-0.146-0.384-0.146-0.53 0-0.27 0.293-0.65 0.46-1.048 0.46s-0.778-0.167-1.048-0.46c-0.147-0.142-0.381-0.139-0.526 0.006s-0.146 0.379-0.003 0.526c0.433 0.429 1.013 0.678 1.622 0.696 0.585-0.012 1.139-0.264 1.533-0.696 0.070-0.070 0.11-0.166 0.11-0.266s-0.040-0.195-0.11-0.266z"></path>
<path d="M13.235 14.735c-1.191 1.19-2.342 0.126-2.47 0-0.147-0.142-0.381-0.139-0.526 0.005s-0.146 0.379-0.004 0.526c0.484 0.48 1.133 0.759 1.815 0.78 0.654-0.014 1.274-0.296 1.715-0.78 0.142-0.147 0.14-0.381-0.005-0.526s-0.379-0.147-0.526-0.005v-0.001z"></path>
</svg>
